<?xml version="1.0" encoding="UTF-8" standalone="no"?>
<!-- Generator: Adobe Illustrator 18.0.0, SVG Export Plug-In . SVG Version: 6.00 Build 0)  -->

<svg
   xmlns:dc="http://purl.org/dc/elements/1.1/"
   xmlns:cc="http://creativecommons.org/ns#"
   xmlns:rdf="http://www.w3.org/1999/02/22-rdf-syntax-ns#"
   xmlns:svg="http://www.w3.org/2000/svg"
   xmlns="http://www.w3.org/2000/svg"
   xmlns:sodipodi="http://sodipodi.sourceforge.net/DTD/sodipodi-0.dtd"
   xmlns:inkscape="http://www.inkscape.org/namespaces/inkscape"
   version="1.1"
   id="Calque_1"
   x="0px"
   y="0px"
   width="792.09998"
   height="160.5"
   viewBox="0 0 792.1 160.5"
   enable-background="new 0 0 792.1 152.5"
   xml:space="preserve"
   inkscape:version="0.91 r13725"
   sodipodi:docname="logo_coconotes.svg"><metadata
     id="metadata4574"><rdf:RDF><cc:Work
         rdf:about=""><dc:format>image/svg+xml</dc:format><dc:type
           rdf:resource="http://purl.org/dc/dcmitype/StillImage" /><dc:title></dc:title></cc:Work></rdf:RDF></metadata><defs
     id="defs4572" /><sodipodi:namedview
     pagecolor="#ffffff"
     bordercolor="#666666"
     borderopacity="1"
     objecttolerance="10"
     gridtolerance="10"
     guidetolerance="10"
     inkscape:pageopacity="0"
     inkscape:pageshadow="2"
     inkscape:window-width="1600"
     inkscape:window-height="837"
     id="namedview4570"
     showgrid="false"
     inkscape:zoom="0.91213234"
     inkscape:cx="246.13052"
     inkscape:cy="222.5025"
     inkscape:window-x="-8"
     inkscape:window-y="-8"
     inkscape:window-maximized="1"
     inkscape:current-layer="Calque_1" /><g
     id="g4544"
     transform="translate(4,4)"><path
       d="M 124.7,59.3 91,61.4 C 90.5,42 83,32.3 68.3,32.3 51.4,32.3 43,47.3 43,77.2 c 0,17.3 2.3,29 6.9,35.1 4.6,6.1 11,9.2 19.2,9.2 13.3,0 21.5,-8.7 24.4,-26 l 31.2,1.9 c -2,16.5 -8.1,29 -18.4,37.5 -10.2,8.6 -22.8,12.8 -37.6,12.8 -18.2,0 -33,-6.3 -44.4,-18.8 -11.4,-12.5 -17,-29.9 -17,-52 0,-20.7 5.5,-37.7 16.5,-51 11,-13.2 26.1,-19.8 45.1,-19.8 33,0 51.6,17.7 55.8,53.2 z"
       id="path4546"
       inkscape:connector-curvature="0" /><path
       d="m 194.8,147.8 c -18.5,0 -32.8,-6.9 -43,-20.8 -10.2,-13.9 -15.2,-30.7 -15.2,-50.5 0,-20.1 5.1,-36.8 15.4,-50.3 10.3,-13.4 25,-20.1 43.9,-20.1 19.2,0 33.7,7.2 43.4,21.5 9.8,14.3 14.6,30.7 14.6,49.2 0,19.9 -5,36.8 -15.1,50.5 -10,13.6 -24.6,20.5 -44,20.5 z m 0.9,-115.5 c -16.9,0 -25.3,14.8 -25.3,44.5 0,29.7 8.4,44.6 25.3,44.6 16.4,0 24.5,-14.8 24.5,-44.5 0.1,-29.7 -8.1,-44.6 -24.5,-44.6 z"
       id="path4548"
       inkscape:connector-curvature="0" /><path
       d="m 385.9,59.3 -33.7,2.1 c -0.5,-19.4 -8,-29.1 -22.7,-29.1 -16.8,0 -25.2,14.9 -25.2,44.8 0,17.3 2.3,29 6.9,35.1 4.6,6.1 11,9.2 19.2,9.2 13.3,0 21.5,-8.7 24.4,-26 l 31.2,1.9 c -2,16.5 -8.1,29 -18.4,37.5 -10.2,8.6 -22.8,12.8 -37.6,12.8 -18.2,0 -33,-6.3 -44.4,-18.8 C 274.2,116.2 268.5,98.9 268.5,76.7 268.5,56 274,39 285,25.7 296,12.5 311.1,5.9 330.1,5.9 c 33.1,0.2 51.7,17.9 55.8,53.4 z"
       id="path4550"
       inkscape:connector-curvature="0" /></g><g
     transform="matrix(1.8808735,0,0,2.2743111,-444.75642,28.559442)"
     style="font-style:normal;font-weight:normal;font-size:40px;line-height:125%;font-family:sans-serif;letter-spacing:0px;word-spacing:0px;fill:#000000;fill-opacity:1;stroke:none;stroke-width:1px;stroke-linecap:butt;stroke-linejoin:miter;stroke-opacity:1"
     id="flowRoot5957"><path
       d="m 558.78664,54.233911 -0.53118,0 q -6.53361,0 -10.16339,-3.612074 -3.62978,-3.612075 -3.62978,-10.05715 0,-6.427368 3.61207,-10.074855 3.62978,-3.647488 9.98633,-3.647488 6.42736,0 10.00403,3.612075 3.59437,3.612075 3.59437,10.110268 0,4.461975 -1.91228,7.684512 -1.89457,3.222538 -5.47123,4.851512 l 5.32958,5.9493 -6.49819,0 -4.32033,-4.8161 z m -0.72595,-22.451523 q -3.1163,0 -4.83381,2.301812 -1.71751,2.301812 -1.71751,6.480487 0,4.2495 1.6821,6.5159 1.68209,2.248693 4.86922,2.248693 3.134,0 4.85151,-2.301812 1.7175,-2.301812 1.7175,-6.462781 0,-4.178675 -1.7175,-6.480487 -1.71751,-2.301812 -4.85151,-2.301812 z"
       style="font-style:normal;font-variant:normal;font-weight:bold;font-stretch:normal;font-size:36.26239777px;font-family:'Franklin Gothic';-inkscape-font-specification:'Franklin Gothic'"
       id="path6133" /><path
       d="m 576.29812,46.035918 0,-12.111074 6.37425,0 0,1.9831 q 0,1.611268 -0.0177,4.054731 -0.0177,2.425756 -0.0177,3.240243 0,2.390344 0.12394,3.452719 0.12395,1.044669 0.42495,1.522737 0.38954,0.619719 1.00926,0.956138 0.63742,0.336418 1.45191,0.336418 1.9831,0 3.1163,-1.522737 1.1332,-1.522737 1.1332,-4.231793 l 0,-9.791556 6.33884,0 0,19.830999 -6.33884,0 0,-2.868413 q -1.4342,1.735213 -3.04547,2.567406 -1.59357,0.814488 -3.52355,0.814488 -3.43501,0 -5.24105,-2.107044 -1.78833,-2.107043 -1.78833,-6.126362 z"
       style="font-style:normal;font-variant:normal;font-weight:bold;font-stretch:normal;font-size:36.26239777px;font-family:'Franklin Gothic';-inkscape-font-specification:'Franklin Gothic'"
       id="path6135" /><path
       d="m 602.36172,33.924844 6.33884,0 0,19.830999 -6.33884,0 0,-19.830999 z m 0,-7.719925 6.33884,0 0,5.170225 -6.33884,0 0,-5.170225 z"
       style="font-style:normal;font-variant:normal;font-weight:bold;font-stretch:normal;font-size:36.26239777px;font-family:'Franklin Gothic';-inkscape-font-specification:'Franklin Gothic'"
       id="path6137" /><path
       d="m 613.85308,33.924844 17.299,0 0,4.426562 -10.44668,10.871637 10.44668,0 0,4.5328 -17.74166,0 0,-4.426563 10.44669,-10.871636 -10.00403,0 0,-4.5328 z"
       style="font-style:normal;font-variant:normal;font-weight:bold;font-stretch:normal;font-size:36.26239777px;font-family:'Franklin Gothic';-inkscape-font-specification:'Franklin Gothic'"
       id="path6139" /><path
       d="m 634.95892,33.924844 17.29901,0 0,4.426562 -10.44669,10.871637 10.44669,0 0,4.5328 -17.74166,0 0,-4.426563 10.44668,-10.871636 -10.00403,0 0,-4.5328 z"
       style="font-style:normal;font-variant:normal;font-weight:bold;font-stretch:normal;font-size:36.26239777px;font-family:'Franklin Gothic';-inkscape-font-specification:'Franklin Gothic'"
       id="path6141" /></g><flowRoot
     xml:space="preserve"
     id="flowRoot5965"
     style="font-style:normal;font-weight:normal;font-size:40px;line-height:125%;font-family:sans-serif;letter-spacing:0px;word-spacing:0px;fill:#000000;fill-opacity:1;stroke:none;stroke-width:1px;stroke-linecap:butt;stroke-linejoin:miter;stroke-opacity:1"
     transform="translate(0,8)"><flowRegion
       id="flowRegion5967"><rect
         id="rect5969"
         width="240.31941"
         height="68.994926"
         x="544.98242"
         y="78.853729" /></flowRegion><flowPara
       id="flowPara5971" /></flowRoot><path
     style="display:inline;fill:#b3b3b3;fill-opacity:1;stroke:#000000;stroke-width:2.23528218;stroke-miterlimit:4;stroke-dasharray:none;stroke-opacity:1"
     d="m 458.90229,87.39221 a 64.442296,17.911566 52.208592 0 0 -53.76267,-40.241117 64.442296,17.911566 52.208592 0 0 25.08146,61.712457 64.442296,17.911566 52.208592 0 0 53.76328,40.24069 64.442296,17.911566 52.208592 0 0 -25.08207,-61.71203 z"
     id="path4152"
     inkscape:connector-curvature="0" /><rect
     style="display:inline;fill:#b3b3b3;fill-opacity:1;stroke:none;stroke-width:2;stroke-miterlimit:4;stroke-dasharray:none;stroke-opacity:1"
     id="rect4311"
     width="15.681897"
     height="20.941669"
     x="393.61359"
     y="-312.9949"
     transform="matrix(0.61175214,0.7910495,-0.80052922,0.59929372,0,0)" /><rect
     style="display:inline;fill:#b3b3b3;fill-opacity:1;stroke:none;stroke-width:2;stroke-miterlimit:4;stroke-dasharray:none;stroke-opacity:1"
     id="rect4309"
     width="13.667582"
     height="19.048025"
     x="280.50156"
     y="-310.87262"
     transform="matrix(0.61175214,0.7910495,-0.80052922,0.59929372,0,0)" /><rect
     style="display:inline;fill:#b3b3b3;fill-opacity:1;stroke:none;stroke-width:2;stroke-miterlimit:4;stroke-dasharray:none;stroke-opacity:1"
     id="rect4313"
     width="1.1967648"
     height="0.94452941"
     x="407.99118"
     y="-311.78146"
     transform="matrix(0.61175214,0.7910495,-0.80052922,0.59929372,0,0)" /><path
     style="display:inline;fill:none;fill-rule:evenodd;stroke:#000000;stroke-width:2.23528218;stroke-linecap:butt;stroke-linejoin:miter;stroke-miterlimit:4;stroke-dasharray:none;stroke-opacity:1"
     d="m 483.64309,149.35445 9.89486,-7.41077 8.37707,-6.27288"
     id="path4156-3"
     inkscape:connector-curvature="0"
     sodipodi:nodetypes="ccc" /><ellipse
     style="display:inline;fill:#666666;stroke:#000000;stroke-width:2.23541927;stroke-miterlimit:4;stroke-dasharray:none;stroke-opacity:1"
     id="path4150"
     cx="345.01099"
     cy="-314.19617"
     rx="64.438011"
     ry="18.476786"
     transform="matrix(0.61175214,0.7910495,-0.80052922,0.59929372,0,0)" /><path
     style="display:inline;fill:none;fill-rule:evenodd;stroke:#000000;stroke-width:2.23528218;stroke-linecap:butt;stroke-linejoin:miter;stroke-miterlimit:4;stroke-dasharray:none;stroke-opacity:1"
     d="m 405.24432,47.070137 9.7327,-7.289388 8.23979,-6.170122"
     id="path4156"
     inkscape:connector-curvature="0"
     sodipodi:nodetypes="ccc" /><ellipse
     style="display:inline;fill:#e6e6e6;fill-opacity:1;stroke:#000000;stroke-width:1.30889452;stroke-miterlimit:4;stroke-dasharray:none;stroke-opacity:1"
     id="path4317"
     cx="345.57498"
     cy="-313.24356"
     rx="36.851326"
     ry="8.1607332"
     transform="matrix(0.61175214,0.7910495,-0.80052922,0.59929372,0,0)" /><rect
     style="display:inline;fill:#e6e6e6;fill-opacity:1;stroke:none;stroke-width:5;stroke-miterlimit:10;stroke-dasharray:none;stroke-opacity:1"
     id="rect5190"
     width="24.027122"
     height="3.9420969"
     x="443.55099"
     y="-23.040335"
     transform="matrix(0.98439737,0.17595972,-0.17595972,0.98439737,0,0)" /><rect
     style="display:inline;fill:#e6e6e6;fill-opacity:1;stroke:none;stroke-width:5;stroke-miterlimit:10;stroke-dasharray:none;stroke-opacity:1"
     id="rect5190-9"
     width="24.027122"
     height="4.2899289"
     x="444.78766"
     y="-23.967871"
     transform="matrix(0.98439737,0.17595972,-0.17595972,0.98439737,0,0)" /><rect
     style="display:inline;fill:#e6e6e6;fill-opacity:1;stroke:none;stroke-width:5;stroke-miterlimit:10;stroke-dasharray:none;stroke-opacity:1"
     id="rect5190-9-1"
     width="24.027122"
     height="4.2899289"
     x="446.14212"
     y="-24.779455"
     transform="matrix(0.98439737,0.17595972,-0.17595972,0.98439737,0,0)" /><rect
     style="display:inline;fill:#e6e6e6;fill-opacity:1;stroke:none;stroke-width:5;stroke-miterlimit:10;stroke-dasharray:none;stroke-opacity:1"
     id="rect5190-9-4"
     width="2.1789296"
     height="4.0000691"
     x="447.26105"
     y="-25.649084"
     transform="matrix(0.98439737,0.17595972,-0.17595972,0.98439737,0,0)" /><rect
     style="display:inline;fill:#e6e6e6;fill-opacity:1;stroke:none;stroke-width:5;stroke-miterlimit:10;stroke-dasharray:none;stroke-opacity:1"
     id="rect5190-9-4-4"
     width="2.1789296"
     height="4.0000691"
     x="447.7027"
     y="-26.199804"
     transform="matrix(0.98439737,0.17595972,-0.17595972,0.98439737,0,0)" /><rect
     style="display:inline;fill:#e6e6e6;fill-opacity:1;stroke:none;stroke-width:5;stroke-miterlimit:10;stroke-dasharray:none;stroke-opacity:1"
     id="rect5190-9-0"
     width="18.712299"
     height="2.5362754"
     x="443.52151"
     y="-22.112791"
     transform="matrix(0.98439737,0.17595972,-0.17595972,0.98439737,0,0)" /><path
     style="display:inline;fill:none;fill-rule:evenodd;stroke:#000000;stroke-width:1.30881441;stroke-linecap:butt;stroke-linejoin:miter;stroke-miterlimit:4;stroke-dasharray:none;stroke-opacity:1"
     d="m 439.4844,56.59399 10.13887,-6.162149 8.58357,-5.215817"
     id="path4156-4"
     inkscape:connector-curvature="0"
     sodipodi:nodetypes="ccc" /><rect
     style="display:inline;fill:#e6e6e6;fill-opacity:1;stroke:none;stroke-width:2;stroke-miterlimit:4;stroke-dasharray:none;stroke-opacity:1"
     id="rect5279"
     width="2.9445002"
     height="3.3044052"
     x="495.55087"
     y="23.917063"
     transform="matrix(0.98439737,0.17595972,-0.17595972,0.98439737,0,0)" /><rect
     style="display:inline;fill:#e6e6e6;fill-opacity:1;stroke:none;stroke-width:2;stroke-miterlimit:4;stroke-dasharray:none;stroke-opacity:1"
     id="rect5279-2"
     width="6.0067806"
     height="7.8841949"
     x="492.78302"
     y="18.032877"
     transform="matrix(0.98439737,0.17595972,-0.17595972,0.98439737,0,0)" /><rect
     style="display:inline;fill:#e6e6e6;fill-opacity:1;stroke:none;stroke-width:2;stroke-miterlimit:4;stroke-dasharray:none;stroke-opacity:1"
     id="rect5279-2-3"
     width="4.7700906"
     height="2.3188813"
     x="496.37534"
     y="21.714113"
     transform="matrix(0.98439737,0.17595972,-0.17595972,0.98439737,0,0)" /><rect
     style="display:inline;fill:#e6e6e6;fill-opacity:1;stroke:none;stroke-width:2;stroke-miterlimit:4;stroke-dasharray:none;stroke-opacity:1"
     id="rect5279-2-3-3"
     width="4.4167504"
     height="1.971049"
     x="495.58029"
     y="23.39522"
     transform="matrix(0.98439737,0.17595972,-0.17595972,0.98439737,0,0)" /><path
     style="display:inline;fill:none;fill-rule:evenodd;stroke:#000000;stroke-width:1.30881441;stroke-linecap:butt;stroke-linejoin:miter;stroke-miterlimit:4;stroke-dasharray:none;stroke-opacity:1"
     d="m 484.76953,114.72895 9.47784,-7.0986 8.02405,-6.00861"
     id="path4156-4-5"
     inkscape:connector-curvature="0"
     sodipodi:nodetypes="ccc" /><rect
     style="display:inline;fill:#e6e6e6;fill-opacity:1;stroke:none;stroke-width:5;stroke-miterlimit:10;stroke-dasharray:none;stroke-opacity:1"
     id="rect5190-9-3"
     width="24.027122"
     height="4.2899289"
     x="451.26556"
     y="-20.663465"
     transform="matrix(0.98439737,0.17595972,-0.17595972,0.98439737,0,0)" /><ellipse
     style="display:inline;fill:#800000;fill-opacity:1;stroke:#000000;stroke-width:0.924097;stroke-miterlimit:4;stroke-dasharray:none;stroke-opacity:1"
     id="path4351"
     cx="343.26462"
     cy="-335.20578"
     rx="36.846481"
     ry="11.1082"
     transform="matrix(0.61175214,0.7910495,-0.80052922,0.59929372,0,0)" /><path
     inkscape:connector-curvature="0"
     style="display:inline;fill:#aa0000;fill-opacity:1;stroke:#000000;stroke-width:4.48099518;stroke-miterlimit:10;stroke-dasharray:none"
     stroke-miterlimit="10"
     d="m 446.32177,16.380682 c 28.04905,-21.2307573 69.40701,-14.6492617 92.43569,14.542908 23.02867,29.192177 19.04627,70.22994 -9.00275,91.46066 C 501.79398,143.63666 418.36105,37.633073 446.32177,16.380682 Z"
     id="path4564" /></svg>