<?xml version="1.0" encoding="UTF-8" standalone="no"?>
<!-- Created with Inkscape (http://www.inkscape.org/) -->

<svg
   xmlns:dc="http://purl.org/dc/elements/1.1/"
   xmlns:cc="http://creativecommons.org/ns#"
   xmlns:rdf="http://www.w3.org/1999/02/22-rdf-syntax-ns#"
   xmlns:svg="http://www.w3.org/2000/svg"
   xmlns="http://www.w3.org/2000/svg"
   xmlns:sodipodi="http://sodipodi.sourceforge.net/DTD/sodipodi-0.dtd"
   xmlns:inkscape="http://www.inkscape.org/namespaces/inkscape"
   width="160"
   height="125"
   viewBox="0 0 160.00001 125.00001"
   id="svg4208"
   version="1.1"
   inkscape:version="0.91 r13725"
   sodipodi:docname="addQuestion.svg">
  <defs
     id="defs4210">
    <filter
       inkscape:collect="always"
       style="color-interpolation-filters:sRGB"
       id="filter4541"
       x="-0.34396642"
       width="1.6879328"
       y="-0.6031192"
       height="2.2062384">
      <feGaussianBlur
         inkscape:collect="always"
         stdDeviation="14.331934"
         id="feGaussianBlur4543" />
    </filter>
  </defs>
  <sodipodi:namedview
     id="base"
     pagecolor="#ffffff"
     bordercolor="#666666"
     borderopacity="1.0"
     inkscape:pageopacity="0.0"
     inkscape:pageshadow="2"
     inkscape:zoom="5.1200001"
     inkscape:cx="43.877554"
     inkscape:cy="50.77512"
     inkscape:document-units="px"
     inkscape:current-layer="layer1"
     showgrid="false"
     inkscape:window-width="1914"
     inkscape:window-height="1138"
     inkscape:window-x="0"
     inkscape:window-y="26"
     inkscape:window-maximized="0" />
  <metadata
     id="metadata4213">
    <rdf:RDF>
      <cc:Work
         rdf:about="">
        <dc:format>image/svg+xml</dc:format>
        <dc:type
           rdf:resource="http://purl.org/dc/dcmitype/StillImage" />
        <dc:title />
      </cc:Work>
    </rdf:RDF>
  </metadata>
  <g
     inkscape:label="Calque 1"
     inkscape:groupmode="layer"
     id="layer1"
     transform="translate(0,-927.36223)">
    <ellipse
       transform="matrix(0.6441974,0,0,0.54781237,38.955544,950.4132)"
       id="path6580"
       style="fill:#b3b3b3;fill-opacity:1;stroke:#ffffff;stroke-width:0;stroke-miterlimit:4;stroke-dasharray:none;stroke-opacity:1;filter:url(#filter4541)"
       cx="58.984375"
       cy="50.976562"
       rx="50"
       ry="28.515625" />
    <g
       transform="matrix(0.88823239,0,0,0.83010662,32.287288,160.68497)"
       id="g3125">
      <path
         inkscape:connector-curvature="0"
         id="path4152"
         d="m 40.404244,985.96422 a 27.817288,7.8911261 48.641324 0 0 -24.749732,-16.62374 27.817288,7.8911261 48.641324 0 0 11.54629,25.4937 27.817288,7.8911261 48.641324 0 0 24.750015,16.62352 27.817288,7.8911261 48.641324 0 0 -11.546573,-25.49348 z"
         style="display:inline;fill:#b3b3b3;fill-opacity:1;stroke:#000000;stroke-width:0.9747808;stroke-miterlimit:4;stroke-dasharray:none;stroke-opacity:1" />
      <rect
         transform="matrix(0.65281885,0.75751406,-0.83008295,0.55763994,0,0)"
         y="615.96033"
         x="867.99316"
         height="9.2972965"
         width="6.7650518"
         id="rect4311"
         style="display:inline;fill:#b3b3b3;fill-opacity:1;stroke:none" />
      <path
         sodipodi:nodetypes="ccc"
         inkscape:connector-curvature="0"
         id="path4156-3"
         d="m 51.793714,1011.5611 4.555111,-3.0613 3.856401,-2.5914"
         style="display:inline;fill:none;stroke:#000000;stroke-width:0.9747808;stroke-linecap:butt;stroke-linejoin:miter;stroke-miterlimit:4;stroke-dasharray:none;stroke-opacity:1" />
      <g
         id="g3069">
        <rect
           style="display:inline;fill:#b3b3b3;fill-opacity:1;stroke:none"
           id="rect4309"
           width="5.896091"
           height="8.4565916"
           x="819.19751"
           y="616.90259"
           transform="matrix(0.65281885,0.75751406,-0.83008295,0.55763994,0,0)" />
        <rect
           style="display:inline;fill:#b3b3b3;fill-opacity:1;stroke:none"
           id="rect4313"
           width="0.51627529"
           height="0.41933474"
           x="874.19556"
           y="616.49908"
           transform="matrix(0.65281885,0.75751406,-0.83008295,0.55763994,0,0)" />
        <ellipse
           style="display:inline;fill:#666666;stroke:#000000;stroke-width:2.23541927;stroke-miterlimit:4;stroke-dasharray:none;stroke-opacity:1"
           id="path4150"
           cx="826.67413"
           cy="516.2522"
           rx="64.438011"
           ry="18.476786"
           transform="matrix(0.28162109,0.32678582,-0.36852493,0.2475707,-0.4577536,586.86679)" />
        <path
           style="display:inline;fill:none;stroke:#000000;stroke-width:0.9747808;stroke-linecap:butt;stroke-linejoin:miter;stroke-miterlimit:4;stroke-dasharray:none;stroke-opacity:1"
           d="m 15.70271,969.30703 4.480464,-3.01128 3.793201,-2.54889"
           id="path4156"
           inkscape:connector-curvature="0"
           sodipodi:nodetypes="ccc" />
        <ellipse
           style="display:inline;fill:#e6e6e6;fill-opacity:1;stroke:#000000;stroke-width:1.30889452;stroke-miterlimit:4;stroke-dasharray:none;stroke-opacity:1"
           id="path4317"
           cx="827.2381"
           cy="517.20477"
           rx="36.851326"
           ry="8.1607332"
           transform="matrix(0.28162109,0.32678582,-0.36852493,0.2475707,-0.4577536,586.86679)" />
        <rect
           style="display:inline;fill:#e6e6e6;fill-opacity:1;stroke:none"
           id="rect5190"
           width="11.027531"
           height="1.6345818"
           x="221.58528"
           y="956.06055"
           transform="matrix(0.98737847,0.15837854,-0.19535459,0.98073268,0,0)" />
        <rect
           style="display:inline;fill:#e6e6e6;fill-opacity:1;stroke:none"
           id="rect5190-9"
           width="11.027531"
           height="1.7788094"
           x="222.15285"
           y="955.67596"
           transform="matrix(0.98737847,0.15837854,-0.19535459,0.98073268,0,0)" />
        <rect
           style="display:inline;fill:#e6e6e6;fill-opacity:1;stroke:none"
           id="rect5190-9-1"
           width="11.027531"
           height="1.7788094"
           x="222.77452"
           y="955.33942"
           transform="matrix(0.98737847,0.15837854,-0.19535459,0.98073268,0,0)" />
        <rect
           style="display:inline;fill:#e6e6e6;fill-opacity:1;stroke:none"
           id="rect5190-9-4"
           width="1.0000453"
           height="1.6586198"
           x="223.28804"
           y="954.97882"
           transform="matrix(0.98737847,0.15837854,-0.19535459,0.98073268,0,0)" />
        <rect
           style="display:inline;fill:#e6e6e6;fill-opacity:1;stroke:none"
           id="rect5190-9-4-4"
           width="1.0000453"
           height="1.6586198"
           x="223.49075"
           y="954.75049"
           transform="matrix(0.98737847,0.15837854,-0.19535459,0.98073268,0,0)" />
        <rect
           style="display:inline;fill:#e6e6e6;fill-opacity:1;stroke:none"
           id="rect5190-9-0"
           width="8.5882292"
           height="1.0516609"
           x="221.57175"
           y="956.44519"
           transform="matrix(0.98737847,0.15837854,-0.19535459,0.98073268,0,0)" />
        <path
           style="display:inline;fill:none;stroke:#000000;stroke-width:0.57075888;stroke-linecap:butt;stroke-linejoin:miter;stroke-miterlimit:4;stroke-dasharray:none;stroke-opacity:1"
           d="m 31.465187,973.24137 4.667445,-2.54561 3.95146,-2.15468"
           id="path4156-4"
           inkscape:connector-curvature="0"
           sodipodi:nodetypes="ccc" />
        <rect
           style="display:inline;fill:#e6e6e6;fill-opacity:1;stroke:none"
           id="rect5279"
           width="1.3514129"
           height="1.3701643"
           x="245.45122"
           y="975.53137"
           transform="matrix(0.98737847,0.15837854,-0.19535459,0.98073268,0,0)" />
        <rect
           style="display:inline;fill:#e6e6e6;fill-opacity:1;stroke:none"
           id="rect5279-2"
           width="2.7568827"
           height="3.2691638"
           x="244.18086"
           y="973.09143"
           transform="matrix(0.98737847,0.15837854,-0.19535459,0.98073268,0,0)" />
        <rect
           style="display:inline;fill:#e6e6e6;fill-opacity:1;stroke:none"
           id="rect5279-2-3"
           width="2.1892891"
           height="0.96151888"
           x="245.82961"
           y="974.6178"
           transform="matrix(0.98737847,0.15837854,-0.19535459,0.98073268,0,0)" />
        <rect
           style="display:inline;fill:#e6e6e6;fill-opacity:1;stroke:none"
           id="rect5279-2-3-3"
           width="2.0271194"
           height="0.81729108"
           x="245.46474"
           y="975.315"
           transform="matrix(0.98737847,0.15837854,-0.19535459,0.98073268,0,0)" />
        <path
           style="display:inline;fill:none;stroke:#000000;stroke-width:0.57075888;stroke-linecap:butt;stroke-linejoin:miter;stroke-miterlimit:4;stroke-dasharray:none;stroke-opacity:1"
           d="m 52.312271,997.25718 4.363138,-2.93246 3.693887,-2.48223"
           id="path4156-4-5"
           inkscape:connector-curvature="0"
           sodipodi:nodetypes="ccc" />
        <rect
           style="display:inline;fill:#e6e6e6;fill-opacity:1;stroke:none"
           id="rect5190-9-3"
           width="11.027531"
           height="1.7788094"
           x="225.12596"
           y="957.04614"
           transform="matrix(0.98737847,0.15837854,-0.19535459,0.98073268,0,0)" />
        <ellipse
           style="display:inline;fill:#800000;fill-opacity:1;stroke:#000000;stroke-width:0.924097;stroke-miterlimit:4;stroke-dasharray:none;stroke-opacity:1"
           id="path4351"
           cx="824.92773"
           cy="495.24258"
           rx="36.846481"
           ry="11.1082"
           transform="matrix(0.28162109,0.32678582,-0.36852493,0.2475707,-0.4577536,586.86679)" />
        <path
           inkscape:connector-curvature="0"
           style="display:inline;fill:#b3b3b3;fill-opacity:1;stroke:#000000;stroke-width:1.95411038;stroke-miterlimit:10;stroke-dasharray:none"
           stroke-miterlimit="10"
           d="m 34.612782,956.62909 c 12.912427,-8.77052 31.95163,-6.05167 42.552925,6.00773 10.601281,12.05942 8.767979,29.0123 -4.144434,37.78278 -12.871765,8.7795 -51.280256,-35.01105 -38.408491,-43.79051 z"
           id="path4564" />
        <g
           transform="matrix(0.46035164,0,0,0.41310412,0.68664479,926.24575)"
           style="font-style:normal;font-weight:normal;font-size:40px;line-height:125%;font-family:sans-serif;letter-spacing:0px;word-spacing:0px;fill:#000000;fill-opacity:1;stroke:none"
           id="flowRoot4822">
          <path
             d="m 123.24902,138.67423 8.9209,0 0,11.16211 -8.9209,0 0,-11.16211 z m 8.65723,-6.45996 -8.39355,0 0,-6.76758 q 0,-4.43848 1.23047,-7.29492 1.23046,-2.85645 5.18554,-6.63575 l 3.95508,-3.91113 q 2.50488,-2.3291 3.60352,-4.39453 1.14258,-2.06543 1.14258,-4.218753 0,-3.911133 -2.9004,-6.328125 -2.85644,-2.416992 -7.60254,-2.416992 -3.47167,0 -7.42675,1.538086 -3.91114,1.538086 -8.17383,4.482422 l 0,-8.26172 q 4.13086,-2.504883 8.34961,-3.735351 4.26269,-1.230469 8.78906,-1.230469 8.08594,0 12.96387,4.262695 4.92187,4.262696 4.92187,11.250001 0,3.339846 -1.58203,6.372076 -1.58203,2.98828 -5.53711,6.76757 l -3.86718,3.7793 q -2.06543,2.06543 -2.94434,3.25195 -0.83496,1.14258 -1.18652,2.24122 -0.26368,0.92285 -0.39551,2.24121 -0.13184,1.31836 -0.13184,3.60351 l 0,5.40528 z"
             style="font-style:normal;font-variant:normal;font-weight:normal;font-stretch:normal;font-size:90.00000763px;font-family:'Franklin Gothic';-inkscape-font-specification:'Franklin Gothic'"
             id="path6077"
             inkscape:connector-curvature="0" />
        </g>
        <rect
           style="fill:#ff0000;fill-opacity:1;stroke:none"
           id="rect4834"
           width="9.0066528"
           height="48.186584"
           x="19.076443"
           y="967.08557" />
        <rect
           style="fill:#ff0000;fill-opacity:1;stroke:none"
           id="rect4834-6"
           width="9.1761942"
           height="44.997307"
           x="-995.97485"
           y="-3.0583208"
           transform="matrix(-0.00417643,-0.99999128,0.99994747,-0.01024956,0,0)" />
      </g>
    </g>
    <text
       xml:space="preserve"
       style="font-style:normal;font-weight:normal;font-size:44.54454422px;line-height:125%;font-family:Sans;letter-spacing:0px;word-spacing:0px;fill:#000000;fill-opacity:1;stroke:none"
       x="83.896393"
       y="971.1955"
       id="text6065"
       sodipodi:linespacing="125%"
       transform="scale(0.94684258,1.0561418)"><tspan
         sodipodi:role="line"
         x="-0.04007443"
         y="971.1955"
         id="tspan6069"
         style="font-style:normal;font-variant:normal;font-weight:bold;font-stretch:normal;font-size:15.59059238px;font-family:'DejaVu Sans';-inkscape-font-specification:'DejaVu Sans Bold';stroke:#ffffff;stroke-width:0.33408409;stroke-miterlimit:4;stroke-dasharray:none;stroke-opacity:1;text-anchor:middle;text-align:center">Cliquez ici pour </tspan><tspan
         sodipodi:role="line"
         x="-0.04007443"
         y="990.68372"
         style="font-style:normal;font-variant:normal;font-weight:bold;font-stretch:normal;font-size:15.59059238px;font-family:'DejaVu Sans';-inkscape-font-specification:'DejaVu Sans Bold';stroke:#ffffff;stroke-width:0.33408409;stroke-miterlimit:4;stroke-dasharray:none;stroke-opacity:1;text-anchor:middle;text-align:center"
         id="tspan6073">poser une question</tspan></text>
  </g>
</svg>
