<?xml version="1.0" encoding="UTF-8" standalone="no"?>
<!-- Created with Inkscape (http://www.inkscape.org/) -->

<svg
   xmlns:dc="http://purl.org/dc/elements/1.1/"
   xmlns:cc="http://creativecommons.org/ns#"
   xmlns:rdf="http://www.w3.org/1999/02/22-rdf-syntax-ns#"
   xmlns:svg="http://www.w3.org/2000/svg"
   xmlns="http://www.w3.org/2000/svg"
   xmlns:sodipodi="http://sodipodi.sourceforge.net/DTD/sodipodi-0.dtd"
   xmlns:inkscape="http://www.inkscape.org/namespaces/inkscape"
   width="60mm"
   height="60mm"
   viewBox="0 0 212.59843 212.59843"
   id="svg4208"
   version="1.1"
   inkscape:version="0.91 r13725"
   sodipodi:docname="buzz.svg">
  <defs
     id="defs4210" />
  <sodipodi:namedview
     id="base"
     pagecolor="#ffffff"
     bordercolor="#666666"
     borderopacity="1.0"
     inkscape:pageopacity="0.0"
     inkscape:pageshadow="2"
     inkscape:zoom="1.8101934"
     inkscape:cx="126.36578"
     inkscape:cy="105.39606"
     inkscape:document-units="px"
     inkscape:current-layer="layer1"
     showgrid="false"
     inkscape:window-width="1680"
     inkscape:window-height="1128"
     inkscape:window-x="0"
     inkscape:window-y="26"
     inkscape:window-maximized="0" />
  <metadata
     id="metadata4213">
    <rdf:RDF>
      <cc:Work
         rdf:about="">
        <dc:format>image/svg+xml</dc:format>
        <dc:type
           rdf:resource="http://purl.org/dc/dcmitype/StillImage" />
        <dc:title />
      </cc:Work>
    </rdf:RDF>
  </metadata>
  <g
     inkscape:label="Calque 1"
     inkscape:groupmode="layer"
     id="layer1"
     transform="translate(0,-839.76378)">
    <path
       style="display:inline;fill:#b3b3b3;fill-opacity:1;stroke:#000000;stroke-width:2.23528218;stroke-miterlimit:4;stroke-dasharray:none;stroke-opacity:1"
       d="m 88.762577,966.09408 a 64.442296,17.911566 52.208592 0 0 -53.76267,-40.24111 64.442296,17.911566 52.208592 0 0 25.08146,61.71245 64.442296,17.911566 52.208592 0 0 53.763283,40.24068 64.442296,17.911566 52.208592 0 0 -25.082073,-61.71202 z"
       id="path4152"
       inkscape:connector-curvature="0" />
    <rect
       style="display:inline;fill:#b3b3b3;fill-opacity:1;stroke:none;stroke-width:2;stroke-miterlimit:4;stroke-dasharray:none;stroke-opacity:1"
       id="rect4311"
       width="15.681897"
       height="20.941669"
       x="875.27667"
       y="517.45343"
       transform="matrix(0.61175214,0.7910495,-0.80052922,0.59929372,0,0)" />
    <rect
       style="display:inline;fill:#b3b3b3;fill-opacity:1;stroke:none;stroke-width:2;stroke-miterlimit:4;stroke-dasharray:none;stroke-opacity:1"
       id="rect4309"
       width="13.667582"
       height="19.048025"
       x="762.16467"
       y="519.57574"
       transform="matrix(0.61175214,0.7910495,-0.80052922,0.59929372,0,0)" />
    <rect
       style="display:inline;fill:#b3b3b3;fill-opacity:1;stroke:none;stroke-width:2;stroke-miterlimit:4;stroke-dasharray:none;stroke-opacity:1"
       id="rect4313"
       width="1.1967648"
       height="0.94452941"
       x="889.6543"
       y="518.66687"
       transform="matrix(0.61175214,0.7910495,-0.80052922,0.59929372,0,0)" />
    <path
       style="display:inline;fill:none;fill-rule:evenodd;stroke:#000000;stroke-width:2.23528218;stroke-linecap:butt;stroke-linejoin:miter;stroke-miterlimit:4;stroke-dasharray:none;stroke-opacity:1"
       d="m 113.50338,1028.0563 9.89486,-7.4107 8.37707,-6.2729"
       id="path4156-3"
       inkscape:connector-curvature="0"
       sodipodi:nodetypes="ccc" />
    <ellipse
       style="display:inline;fill:#666666;stroke:#000000;stroke-width:2.23541927;stroke-miterlimit:4;stroke-dasharray:none;stroke-opacity:1"
       id="path4150"
       cx="826.67413"
       cy="516.2522"
       rx="64.438011"
       ry="18.476786"
       transform="matrix(0.61175214,0.7910495,-0.80052922,0.59929372,0,0)" />
    <path
       style="display:inline;fill:none;fill-rule:evenodd;stroke:#000000;stroke-width:2.23528218;stroke-linecap:butt;stroke-linejoin:miter;stroke-miterlimit:4;stroke-dasharray:none;stroke-opacity:1"
       d="m 35.104607,925.77201 9.7327,-7.28939 8.23979,-6.17012"
       id="path4156"
       inkscape:connector-curvature="0"
       sodipodi:nodetypes="ccc" />
    <ellipse
       style="display:inline;fill:#e6e6e6;fill-opacity:1;stroke:#000000;stroke-width:1.30889452;stroke-miterlimit:4;stroke-dasharray:none;stroke-opacity:1"
       id="path4317"
       cx="827.2381"
       cy="517.20477"
       rx="36.851326"
       ry="8.1607332"
       transform="matrix(0.61175214,0.7910495,-0.80052922,0.59929372,0,0)" />
    <rect
       style="display:inline;fill:#e6e6e6;fill-opacity:1;stroke:none;stroke-width:5;stroke-miterlimit:10;stroke-dasharray:none;stroke-opacity:1"
       id="rect5190"
       width="24.027122"
       height="3.9420969"
       x="233.80257"
       y="907.08124"
       transform="matrix(0.98439737,0.17595972,-0.17595972,0.98439737,0,0)" />
    <rect
       style="display:inline;fill:#e6e6e6;fill-opacity:1;stroke:none;stroke-width:5;stroke-miterlimit:10;stroke-dasharray:none;stroke-opacity:1"
       id="rect5190-9"
       width="24.027122"
       height="4.2899289"
       x="235.03923"
       y="906.15369"
       transform="matrix(0.98439737,0.17595972,-0.17595972,0.98439737,0,0)" />
    <rect
       style="display:inline;fill:#e6e6e6;fill-opacity:1;stroke:none;stroke-width:5;stroke-miterlimit:10;stroke-dasharray:none;stroke-opacity:1"
       id="rect5190-9-1"
       width="24.027122"
       height="4.2899289"
       x="236.39369"
       y="905.3421"
       transform="matrix(0.98439737,0.17595972,-0.17595972,0.98439737,0,0)" />
    <rect
       style="display:inline;fill:#e6e6e6;fill-opacity:1;stroke:none;stroke-width:5;stroke-miterlimit:10;stroke-dasharray:none;stroke-opacity:1"
       id="rect5190-9-4"
       width="2.1789296"
       height="4.0000691"
       x="237.51262"
       y="904.47247"
       transform="matrix(0.98439737,0.17595972,-0.17595972,0.98439737,0,0)" />
    <rect
       style="display:inline;fill:#e6e6e6;fill-opacity:1;stroke:none;stroke-width:5;stroke-miterlimit:10;stroke-dasharray:none;stroke-opacity:1"
       id="rect5190-9-4-4"
       width="2.1789296"
       height="4.0000691"
       x="237.95427"
       y="903.92175"
       transform="matrix(0.98439737,0.17595972,-0.17595972,0.98439737,0,0)" />
    <rect
       style="display:inline;fill:#e6e6e6;fill-opacity:1;stroke:none;stroke-width:5;stroke-miterlimit:10;stroke-dasharray:none;stroke-opacity:1"
       id="rect5190-9-0"
       width="18.712299"
       height="2.5362754"
       x="233.77309"
       y="908.00873"
       transform="matrix(0.98439737,0.17595972,-0.17595972,0.98439737,0,0)" />
    <path
       style="display:inline;fill:none;fill-rule:evenodd;stroke:#000000;stroke-width:1.30881441;stroke-linecap:butt;stroke-linejoin:miter;stroke-miterlimit:4;stroke-dasharray:none;stroke-opacity:1"
       d="m 69.344687,935.29586 10.13887,-6.16215 8.58357,-5.21581"
       id="path4156-4"
       inkscape:connector-curvature="0"
       sodipodi:nodetypes="ccc" />
    <rect
       style="display:inline;fill:#e6e6e6;fill-opacity:1;stroke:none;stroke-width:2;stroke-miterlimit:4;stroke-dasharray:none;stroke-opacity:1"
       id="rect5279"
       width="2.9445002"
       height="3.3044052"
       x="285.80243"
       y="954.03864"
       transform="matrix(0.98439737,0.17595972,-0.17595972,0.98439737,0,0)" />
    <rect
       style="display:inline;fill:#e6e6e6;fill-opacity:1;stroke:none;stroke-width:2;stroke-miterlimit:4;stroke-dasharray:none;stroke-opacity:1"
       id="rect5279-2"
       width="6.0067806"
       height="7.8841949"
       x="283.03458"
       y="948.15442"
       transform="matrix(0.98439737,0.17595972,-0.17595972,0.98439737,0,0)" />
    <rect
       style="display:inline;fill:#e6e6e6;fill-opacity:1;stroke:none;stroke-width:2;stroke-miterlimit:4;stroke-dasharray:none;stroke-opacity:1"
       id="rect5279-2-3"
       width="4.7700906"
       height="2.3188813"
       x="286.62689"
       y="951.83563"
       transform="matrix(0.98439737,0.17595972,-0.17595972,0.98439737,0,0)" />
    <rect
       style="display:inline;fill:#e6e6e6;fill-opacity:1;stroke:none;stroke-width:2;stroke-miterlimit:4;stroke-dasharray:none;stroke-opacity:1"
       id="rect5279-2-3-3"
       width="4.4167504"
       height="1.971049"
       x="285.83188"
       y="953.51678"
       transform="matrix(0.98439737,0.17595972,-0.17595972,0.98439737,0,0)" />
    <path
       style="display:inline;fill:none;fill-rule:evenodd;stroke:#000000;stroke-width:1.30881441;stroke-linecap:butt;stroke-linejoin:miter;stroke-miterlimit:4;stroke-dasharray:none;stroke-opacity:1"
       d="m 114.62982,993.43082 9.47784,-7.0986 8.02405,-6.00861"
       id="path4156-4-5"
       inkscape:connector-curvature="0"
       sodipodi:nodetypes="ccc" />
    <rect
       style="display:inline;fill:#e6e6e6;fill-opacity:1;stroke:none;stroke-width:5;stroke-miterlimit:10;stroke-dasharray:none;stroke-opacity:1"
       id="rect5190-9-3"
       width="24.027122"
       height="4.2899289"
       x="241.51714"
       y="909.45807"
       transform="matrix(0.98439737,0.17595972,-0.17595972,0.98439737,0,0)" />
    <ellipse
       style="display:inline;fill:#800000;fill-opacity:1;stroke:#000000;stroke-width:0.924097;stroke-miterlimit:4;stroke-dasharray:none;stroke-opacity:1"
       id="path4351"
       cx="824.92773"
       cy="495.24258"
       rx="36.846481"
       ry="11.1082"
       transform="matrix(0.61175214,0.7910495,-0.80052922,0.59929372,0,0)" />
    <path
       inkscape:connector-curvature="0"
       style="display:inline;fill:#b3b3b3;fill-opacity:1;stroke:#000000;stroke-width:4.48099518;stroke-miterlimit:10;stroke-dasharray:none"
       stroke-miterlimit="10"
       d="m 76.182057,895.08255 c 28.049053,-21.23075 69.407013,-14.64926 92.435693,14.54291 23.02867,29.19218 19.04627,70.22994 -9.00275,91.46064 -27.96073,21.2524 -111.393663,-84.75115 -83.432943,-106.00355 z"
       id="path4564" />
    <g
       transform="translate(2.4859224,821.53368)"
       style="font-style:normal;font-weight:normal;font-size:40px;line-height:125%;font-family:sans-serif;letter-spacing:0px;word-spacing:0px;fill:#000000;fill-opacity:1;stroke:none;stroke-width:1px;stroke-linecap:butt;stroke-linejoin:miter;stroke-opacity:1"
       id="flowRoot4822">
      <path
         d="m 123.24902,138.67423 8.9209,0 0,11.16211 -8.9209,0 0,-11.16211 z m 8.65723,-6.45996 -8.39355,0 0,-6.76758 q 0,-4.43848 1.23047,-7.29492 1.23046,-2.85645 5.18554,-6.63575 l 3.95508,-3.91113 q 2.50488,-2.3291 3.60352,-4.39453 1.14258,-2.06543 1.14258,-4.218753 0,-3.911133 -2.9004,-6.328125 -2.85644,-2.416992 -7.60254,-2.416992 -3.47167,0 -7.42675,1.538086 -3.91114,1.538086 -8.17383,4.482422 l 0,-8.26172 q 4.13086,-2.504883 8.34961,-3.735351 4.26269,-1.230469 8.78906,-1.230469 8.08594,0 12.96387,4.262695 4.92187,4.262696 4.92187,11.250001 0,3.339846 -1.58203,6.372076 -1.58203,2.98828 -5.53711,6.76757 l -3.86718,3.7793 q -2.06543,2.06543 -2.94434,3.25195 -0.83496,1.14258 -1.18652,2.24122 -0.26368,0.92285 -0.39551,2.24121 -0.13184,1.31836 -0.13184,3.60351 l 0,5.40528 z"
         style="font-style:normal;font-variant:normal;font-weight:normal;font-stretch:normal;font-size:90.00000763px;font-family:'Franklin Gothic';-inkscape-font-specification:'Franklin Gothic'"
         id="path6077" />
    </g>
    <rect
       style="fill:#ff0000;fill-opacity:1;stroke:none"
       id="rect4834"
       width="15.000001"
       height="100.00001"
       x="45.770191"
       y="923.16681" />
    <rect
       style="fill:#ff0000;fill-opacity:1;stroke:none"
       id="rect4834-6"
       width="14.282415"
       height="99.91748"
       x="-980.66632"
       y="-2.488034"
       transform="matrix(-0.00595846,-0.99998225,0.99997419,-0.00718432,0,0)" />
  </g>
</svg>
