<?xml version="1.0" encoding="UTF-8" standalone="no"?>
<!-- Created with Inkscape (http://www.inkscape.org/) -->

<svg
   xmlns:dc="http://purl.org/dc/elements/1.1/"
   xmlns:cc="http://creativecommons.org/ns#"
   xmlns:rdf="http://www.w3.org/1999/02/22-rdf-syntax-ns#"
   xmlns:svg="http://www.w3.org/2000/svg"
   xmlns="http://www.w3.org/2000/svg"
   xmlns:sodipodi="http://sodipodi.sourceforge.net/DTD/sodipodi-0.dtd"
   xmlns:inkscape="http://www.inkscape.org/namespaces/inkscape"
   width="60mm"
   height="60mm"
   viewBox="0 0 212.59843 212.59843"
   id="svg4208"
   version="1.1"
   inkscape:version="0.48.4 r9939"
   sodipodi:docname="FS.svg">
  <defs
     id="defs4210" />
  <sodipodi:namedview
     id="base"
     pagecolor="#ffffff"
     bordercolor="#666666"
     borderopacity="1.0"
     inkscape:pageopacity="0.0"
     inkscape:pageshadow="2"
     inkscape:zoom="1.8101934"
     inkscape:cx="19.194911"
     inkscape:cy="105.39606"
     inkscape:document-units="px"
     inkscape:current-layer="layer1"
     showgrid="false"
     inkscape:window-width="1680"
     inkscape:window-height="1028"
     inkscape:window-x="75"
     inkscape:window-y="24"
     inkscape:window-maximized="0" />
  <metadata
     id="metadata4213">
    <rdf:RDF>
      <cc:Work
         rdf:about="">
        <dc:format>image/svg+xml</dc:format>
        <dc:type
           rdf:resource="http://purl.org/dc/dcmitype/StillImage" />
        <dc:title />
      </cc:Work>
    </rdf:RDF>
  </metadata>
  <g
     inkscape:label="Calque 1"
     inkscape:groupmode="layer"
     id="layer1"
     transform="translate(0,-839.76378)">
    <path
       style="fill:#000000"
       d="m 11.770977,1032.3358 c -3.7811991,-3.7668 -3.7424621,-71.98583 0.04087,-71.98583 1.476496,0 7.916578,5.14742 14.311292,11.43871 l 11.626753,11.43872 9.454896,-9.24403 c 11.316766,-11.0643 18.072662,-11.85176 26.50035,-3.08858 8.383423,8.7173 7.569886,15.04769 -3.359474,26.14159 l -9.279276,9.41912 11.482319,11.5825 c 6.315292,6.3705 11.482331,12.7863 11.482331,14.2571 0,3.7689 -68.478871,3.8075 -72.260068,0.042 z m 116.321093,-0.042 c 0,-1.4709 5.16703,-7.8864 11.48232,-14.2569 l 11.48232,-11.5827 -9.27926,-9.41892 c -10.92938,-11.09393 -11.74291,-17.42453 -3.35947,-26.14161 8.42767,-8.76318 15.18357,-7.97594 26.50034,3.08858 l 9.4549,9.24402 11.62676,-11.43871 c 6.3947,-6.29129 12.83479,-11.43871 14.3113,-11.43871 3.78331,0 3.82207,68.21875 0.0407,71.98575 -3.7811,3.7668 -72.25996,3.7281 -72.25996,-0.042 z M 9.1273159,890.55798 c 0,-24.04391 0.810572,-35.48351 2.6436611,-37.30971 3.781197,-3.76674 72.260068,-3.72812 72.260068,0.0417 0,1.47089 -5.167039,7.88662 -11.482331,14.25692 l -11.482319,11.58269 9.279276,9.41895 c 11.106562,11.27389 11.896946,18.00413 3.100331,26.39991 -8.750396,8.35145 -15.104998,7.54117 -26.241207,-3.34668 L 37.7499,902.35751 26.123147,913.79645 c -6.394715,6.29129 -12.834797,11.43872 -14.311292,11.43872 -1.9974121,0 -2.6845391,-8.87576 -2.6845391,-34.67609 z m 176.8018541,23.21323 -11.50659,-11.46287 -9.47956,9.26818 c -11.16177,10.91287 -17.51014,11.72753 -26.2659,3.37082 -8.79663,-8.39556 -8.00624,-15.1258 3.10033,-26.39969 l 9.27926,-9.41895 -11.48232,-11.58269 c -6.31529,-6.37052 -11.48232,-12.78604 -11.48232,-14.25692 0,-3.76894 68.47887,-3.80756 72.26007,-0.0417 3.86308,3.84838 3.734,71.98578 -0.13637,71.98578 -1.52903,0 -7.95799,-5.15839 -14.2866,-11.46285 z"
       id="path3020"
       inkscape:connector-curvature="0" />
  </g>
</svg>
