<?xml version="1.0" encoding="UTF-8" standalone="no"?>
<!-- Created with Inkscape (http://www.inkscape.org/) -->

<svg
   xmlns:dc="http://purl.org/dc/elements/1.1/"
   xmlns:cc="http://creativecommons.org/ns#"
   xmlns:rdf="http://www.w3.org/1999/02/22-rdf-syntax-ns#"
   xmlns:svg="http://www.w3.org/2000/svg"
   xmlns="http://www.w3.org/2000/svg"
   xmlns:sodipodi="http://sodipodi.sourceforge.net/DTD/sodipodi-0.dtd"
   xmlns:inkscape="http://www.inkscape.org/namespaces/inkscape"
   width="40"
   height="22"
   id="svg2"
   version="1.1"
   inkscape:version="0.48.4 r9939"
   sodipodi:docname="FS2.svg">
  <defs
     id="defs4" />
  <sodipodi:namedview
     id="base"
     pagecolor="#ffffff"
     bordercolor="#666666"
     borderopacity="1.0"
     inkscape:pageopacity="0.0"
     inkscape:pageshadow="2"
     inkscape:zoom="22.4"
     inkscape:cx="23.717541"
     inkscape:cy="19.294085"
     inkscape:document-units="px"
     inkscape:current-layer="layer1"
     showgrid="false"
     inkscape:window-width="1855"
     inkscape:window-height="1056"
     inkscape:window-x="65"
     inkscape:window-y="24"
     inkscape:window-maximized="1" />
  <metadata
     id="metadata7">
    <rdf:RDF>
      <cc:Work
         rdf:about="">
        <dc:format>image/svg+xml</dc:format>
        <dc:type
           rdf:resource="http://purl.org/dc/dcmitype/StillImage" />
        <dc:title></dc:title>
      </cc:Work>
    </rdf:RDF>
  </metadata>
  <g
     inkscape:label="Calque 1"
     inkscape:groupmode="layer"
     id="layer1"
     transform="translate(0,-1030.3622)">
    <path
       style="fill:#000000"
       d="m 0.30352437,1048.3971 0,-3.729 1.07708423,0 1.0770843,0 0,2.2542 0,2.2543 2.9235144,-2.2831 2.9235129,-2.2831 0,-3.1901 0,-3.19 -2.9235129,-2.2831 -2.9235144,-2.2831 0,2.2542 0,2.2542 -1.0770843,0 -1.07708423,0 0,-3.7289 0,-3.729 4.66736463,0 c 2.5670503,0 4.6962151,0.022 4.7314773,0.05 0.035261,0.027 0.04118,0.4321 0.013156,0.8995 l -0.05096,0.8499 -2.7458233,0.033 -2.7458232,0.033 2.8448319,2.2554 2.8448334,2.2554 10.185769,0 10.185769,0 2.920477,-2.2855 2.920477,-2.2854 -2.883529,0 -2.883528,0 0,-0.9022 0,-0.9022 4.69301,0 4.69301,0 0,3.729 0,3.7289 -1.077084,0 -1.077085,0 0,-2.1941 0,-2.194 -2.923514,2.2831 -2.923514,2.2831 0.006,3.0685 0.006,3.0686 2.911585,2.3456 2.911585,2.3457 0.006,-2.2555 0.006,-2.2554 1.077084,0 1.077085,0 0,3.729 0,3.7289 -4.69301,0 -4.69301,0 0,-0.9021 0,-0.9022 2.833275,0 2.833274,0 -2.794807,-2.2311 -2.794808,-2.231 -10.306447,0 -10.306445,0 -2.8488555,2.2272 -2.8488556,2.2271 2.7819548,0 c 1.5300751,0 2.8108052,0.022 2.8460674,0.05 0.035261,0.027 0.04112,0.4333 0.013017,0.9022 l -0.051094,0.8525 -4.6803834,0 -4.68038352,0 0,-3.7289 z"
       id="path2996"
       inkscape:connector-curvature="0" />
    <rect
       style="fill:#ffffff;fill-opacity:1;stroke:#d4111c;stroke-width:0;stroke-miterlimit:4;stroke-opacity:1;stroke-dasharray:none"
       id="rect2998"
       width="6.7821102"
       height="3.8930337"
       x="9.4939852"
       y="1038.6588" />
    <rect
       style="fill:#ff2a2a;fill-opacity:1;stroke:#d4111c;stroke-width:0;stroke-miterlimit:4;stroke-opacity:1;stroke-dasharray:none"
       id="rect2998-1"
       width="7.3178244"
       height="3.9823194"
       x="16.542967"
       y="1038.5911" />
    <rect
       style="fill:#ffffff;fill-opacity:1;stroke:#d4111c;stroke-width:0;stroke-miterlimit:4;stroke-opacity:1;stroke-dasharray:none"
       id="rect2998-5"
       width="6.7821102"
       height="6.4376764"
       x="24.153587"
       y="1038.63" />
    <text
       xml:space="preserve"
       style="font-size:25.23618317px;font-style:normal;font-weight:normal;line-height:125%;letter-spacing:0px;word-spacing:0px;fill:#000000;fill-opacity:1;stroke:none;font-family:Sans"
       x="10.877711"
       y="1065.4467"
       id="text3235"
       sodipodi:linespacing="125%"
       transform="scale(1.0221026,0.97837537)"><tspan
         sodipodi:role="line"
         id="tspan3237"
         x="10.877711"
         y="1065.4467"
         style="font-size:5.04723644px">D</tspan></text>
    <text
       xml:space="preserve"
       style="font-size:25.23618317px;font-style:normal;font-weight:normal;line-height:125%;letter-spacing:0px;word-spacing:0px;fill:#000000;fill-opacity:1;stroke:none;font-family:Sans"
       x="17.787758"
       y="1065.4156"
       id="text3235-5"
       sodipodi:linespacing="125%"
       transform="scale(1.0221026,0.97837537)"><tspan
         sodipodi:role="line"
         id="tspan3237-5"
         x="17.787758"
         y="1065.4156"
         style="font-size:5.04723644px">V</tspan></text>
    <text
       xml:space="preserve"
       style="font-size:34.82817078px;font-style:normal;font-weight:normal;line-height:125%;letter-spacing:0px;word-spacing:0px;fill:#000000;fill-opacity:1;stroke:none;font-family:Sans"
       x="25.386444"
       y="1021.4266"
       id="text3235-4"
       sodipodi:linespacing="125%"
       transform="scale(0.97804611,1.0224467)"><tspan
         sodipodi:role="line"
         id="tspan3237-9"
         x="25.386444"
         y="1021.4266"
         style="font-size:6.96563387px">O</tspan></text>
  </g>
</svg>
