<?xml version="1.0" standalone="no"?>
<!DOCTYPE svg PUBLIC "-//W3C//DTD SVG 20010904//EN"
 "http://www.w3.org/TR/2001/REC-SVG-20010904/DTD/svg10.dtd">
<svg version="1.0" xmlns="http://www.w3.org/2000/svg"
 width="60.000000pt" height="60.000000pt" viewBox="0 0 60.000000 60.000000"
 preserveAspectRatio="xMidYMid meet">
<metadata>
Created by potrace 1.11, written by Peter Selinger 2001-2013
</metadata>
<g transform="translate(0.000000,60.000000) scale(0.100000,-0.100000)"
fill="#000000" stroke="none">
<path d="M159 560 c-22 -11 -48 -38 -64 -65 -23 -40 -26 -54 -21 -103 3 -31 5
-78 5 -104 0 -52 24 -108 46 -108 7 0 16 -9 20 -20 8 -27 -65 -113 -111 -129
-55 -20 -39 -31 42 -31 64 0 75 2 70 15 -3 8 -1 15 5 15 6 0 8 9 4 23 -5 14 2
9 19 -15 l27 -38 128 0 128 0 6 48 c3 26 15 67 26 93 23 52 36 246 21 313 -19
83 -101 126 -239 126 -55 -1 -86 -6 -112 -20z m271 -131 c0 -5 8 -9 18 -9 28
0 52 -61 52 -135 0 -35 -5 -67 -10 -70 -6 -4 -10 -16 -8 -28 2 -14 -3 -23 -14
-25 -11 -2 -18 3 -18 11 0 24 -38 50 -77 51 -36 1 -38 2 -35 33 2 17 -2 41 -8
52 -15 29 12 29 41 0 16 -16 28 -20 52 -15 57 11 75 46 36 67 -16 8 -36 8 -80
0 -71 -14 -107 -6 -120 27 -5 13 -8 26 -6 28 1 2 31 5 65 7 34 2 67 8 73 14
12 12 39 6 39 -8z"/>
</g>
</svg>
